{
    "asset" : {
        "generator" : "Khronos glTF Blender I/O v1.1.46",
        "version" : "2.0"
    },
    "scene" : 0,
    "scenes" : [
        {
            "name" : "Scene",
            "nodes" : [
                0,
                1,
                2,
                3,
                4,
                5,
                6
            ]
        }
    ],
    "nodes" : [
        {
            "mesh" : 0,
            "name" : "Box001",
            "rotation" : [
                -0.5,
                0.5,
                -0.4999999701976776,
                0.5
            ],
            "scale" : [
                0.004419930279254913,
                0.004419930279254913,
                0.004419930279254913
            ],
            "translation" : [
                0,
                0.13262568414211273,
                -0.07580411434173584
            ]
        },
        {
            "mesh" : 1,
            "name" : "Box002",
            "rotation" : [
                -0.5,
                0.5,
                -0.4999999701976776,
                0.5
            ],
            "scale" : [
                0.002013155724853277,
                0.002013155724853277,
                0.002013155724853277
            ],
            "translation" : [
                0,
                0.22171297669410706,
                -0.09225702285766602
            ]
        },
        {
            "mesh" : 2,
            "name" : "Box003",
            "rotation" : [
                -0.5,
                0.5,
                -0.4999999701976776,
                0.5
            ],
            "scale" : [
                0.004419930279254913,
                0.004419930279254913,
                0.004419930279254913
            ],
            "translation" : [
                0,
                0.13262568414211273,
                -0.35782039165496826
            ]
        },
        {
            "mesh" : 3,
            "name" : "Box004",
            "rotation" : [
                -0.5,
                0.5,
                -0.4999999701976776,
                0.5
            ],
            "scale" : [
                0.0034532814752310514,
                0.0034532814752310514,
                0.0034532814752310514
            ],
            "translation" : [
                0.0052591185085475445,
                0.2236638069152832,
                -0.03145575523376465
            ]
        },
        {
            "mesh" : 4,
            "name" : "Cylinder001",
            "rotation" : [
                -0.5,
                0.5,
                -0.4999999701976776,
                0.5
            ],
            "scale" : [
                0.004923342727124691,
                0.014331867918372154,
                0.004923342727124691
            ],
            "translation" : [
                0.0033220984041690826,
                0.22062402963638306,
                -0.015350967645645142
            ]
        },
        {
            "mesh" : 5,
            "name" : "Box005",
            "rotation" : [
                -0.5,
                0.5,
                -0.4999999701976776,
                0.5
            ],
            "scale" : [
                0.004288085270673037,
                0.017923999577760696,
                0.0038274426478892565
            ],
            "translation" : [
                0,
                0.12185385823249817,
                -0.1295623779296875
            ]
        },
        {
            "mesh" : 6,
            "name" : "Box006",
            "rotation" : [
                -0.5,
                0.5,
                -0.4999999701976776,
                0.5
            ],
            "scale" : [
                0.004068763926625252,
                0.011632672511041164,
                0.003552480833604932
            ],
            "translation" : [
                0,
                0.12346860766410828,
                -0.1290515661239624
            ]
        }
    ],
    "materials" : [
        {
            "alphaMode" : "BLEND",
            "doubleSided" : true,
            "emissiveFactor" : [
                1,
                1,
                1
            ],
            "name" : "Material.001",
            "pbrMetallicRoughness" : {
                "baseColorFactor" : [
                    1,
                    1,
                    1,
                    0.08571428060531616
                ],
                "metallicFactor" : 0,
                "roughnessFactor" : 0.15450122952461243
            }
        },
        {
            "doubleSided" : true,
            "emissiveFactor" : [
                0,
                0,
                0
            ],
            "name" : "01 - Default",
            "pbrMetallicRoughness" : {
                "baseColorTexture" : {
                    "index" : 0,
                    "texCoord" : 0
                },
                "metallicFactor" : 0,
                "roughnessFactor" : 0.858578622341156
            }
        }
    ],
    "meshes" : [
        {
            "name" : "Mesh",
            "primitives" : [
                {
                    "attributes" : {
                        "POSITION" : 0,
                        "NORMAL" : 1,
                        "TEXCOORD_0" : 2
                    },
                    "indices" : 3
                }
            ]
        },
        {
            "name" : "Mesh.001",
            "primitives" : [
                {
                    "attributes" : {
                        "POSITION" : 4,
                        "NORMAL" : 5,
                        "TEXCOORD_0" : 6
                    },
                    "indices" : 3
                }
            ]
        },
        {
            "name" : "Mesh.002",
            "primitives" : [
                {
                    "attributes" : {
                        "POSITION" : 7,
                        "NORMAL" : 8,
                        "TEXCOORD_0" : 9
                    },
                    "indices" : 3
                }
            ]
        },
        {
            "name" : "Mesh.003",
            "primitives" : [
                {
                    "attributes" : {
                        "POSITION" : 10,
                        "NORMAL" : 11,
                        "TEXCOORD_0" : 12
                    },
                    "indices" : 13
                }
            ]
        },
        {
            "name" : "Mesh.004",
            "primitives" : [
                {
                    "attributes" : {
                        "POSITION" : 14,
                        "NORMAL" : 15,
                        "TEXCOORD_0" : 16
                    },
                    "indices" : 17
                }
            ]
        },
        {
            "name" : "Mesh.006",
            "primitives" : [
                {
                    "attributes" : {
                        "POSITION" : 18,
                        "NORMAL" : 19,
                        "TEXCOORD_0" : 20
                    },
                    "indices" : 3,
                    "material" : 0
                }
            ]
        },
        {
            "name" : "Mesh.007",
            "primitives" : [
                {
                    "attributes" : {
                        "POSITION" : 21,
                        "NORMAL" : 22,
                        "TEXCOORD_0" : 23
                    },
                    "indices" : 3,
                    "material" : 1
                }
            ]
        }
    ],
    "textures" : [
        {
            "source" : 0
        }
    ],
    "images" : [
        {
            "mimeType" : "image/png",
            "name" : "Soap",
            "uri" : "Soap.png"
        }
    ],
    "accessors" : [
        {
            "bufferView" : 0,
            "componentType" : 5126,
            "count" : 264,
            "max" : [
                26.59496307373047,
                14.663636207580566,
                32.192054748535156
            ],
            "min" : [
                -26.59496307373047,
                0,
                -32.192054748535156
            ],
            "type" : "VEC3"
        },
        {
            "bufferView" : 1,
            "componentType" : 5126,
            "count" : 264,
            "type" : "VEC3"
        },
        {
            "bufferView" : 2,
            "componentType" : 5126,
            "count" : 264,
            "type" : "VEC2"
        },
        {
            "bufferView" : 3,
            "componentType" : 5123,
            "count" : 516,
            "type" : "SCALAR"
        },
        {
            "bufferView" : 4,
            "componentType" : 5126,
            "count" : 264,
            "max" : [
                26.59496307373047,
                14.663636207580566,
                32.192054748535156
            ],
            "min" : [
                -26.59496307373047,
                0,
                -32.192054748535156
            ],
            "type" : "VEC3"
        },
        {
            "bufferView" : 5,
            "componentType" : 5126,
            "count" : 264,
            "type" : "VEC3"
        },
        {
            "bufferView" : 6,
            "componentType" : 5126,
            "count" : 264,
            "type" : "VEC2"
        },
        {
            "bufferView" : 7,
            "componentType" : 5126,
            "count" : 264,
            "max" : [
                26.594966888427734,
                14.77891731262207,
                32.19206237792969
            ],
            "min" : [
                -26.59496307373047,
                0,
                -32.19206237792969
            ],
            "type" : "VEC3"
        },
        {
            "bufferView" : 8,
            "componentType" : 5126,
            "count" : 264,
            "type" : "VEC3"
        },
        {
            "bufferView" : 9,
            "componentType" : 5126,
            "count" : 264,
            "type" : "VEC2"
        },
        {
            "bufferView" : 10,
            "componentType" : 5126,
            "count" : 625,
            "max" : [
                7.603862762451172,
                13.20617961883545,
                8.149495124816895
            ],
            "min" : [
                -7.603862762451172,
                0,
                -8.149495124816895
            ],
            "type" : "VEC3"
        },
        {
            "bufferView" : 11,
            "componentType" : 5126,
            "count" : 625,
            "type" : "VEC3"
        },
        {
            "bufferView" : 12,
            "componentType" : 5126,
            "count" : 625,
            "type" : "VEC2"
        },
        {
            "bufferView" : 13,
            "componentType" : 5123,
            "count" : 1476,
            "type" : "SCALAR"
        },
        {
            "bufferView" : 14,
            "componentType" : 5126,
            "count" : 154,
            "max" : [
                1.5935630798339844,
                2.231323003768921,
                1.569353461265564
            ],
            "min" : [
                -1.5935630798339844,
                0,
                -1.5693533420562744
            ],
            "type" : "VEC3"
        },
        {
            "bufferView" : 15,
            "componentType" : 5126,
            "count" : 154,
            "type" : "VEC3"
        },
        {
            "bufferView" : 16,
            "componentType" : 5126,
            "count" : 154,
            "type" : "VEC2"
        },
        {
            "bufferView" : 17,
            "componentType" : 5123,
            "count" : 648,
            "type" : "SCALAR"
        },
        {
            "bufferView" : 18,
            "componentType" : 5126,
            "count" : 264,
            "max" : [
                26.59496307373047,
                14.663636207580566,
                32.192054748535156
            ],
            "min" : [
                -26.59496307373047,
                0,
                -32.192054748535156
            ],
            "type" : "VEC3"
        },
        {
            "bufferView" : 19,
            "componentType" : 5126,
            "count" : 264,
            "type" : "VEC3"
        },
        {
            "bufferView" : 20,
            "componentType" : 5126,
            "count" : 264,
            "type" : "VEC2"
        },
        {
            "bufferView" : 21,
            "componentType" : 5126,
            "count" : 264,
            "max" : [
                26.59496307373047,
                14.663636207580566,
                32.192054748535156
            ],
            "min" : [
                -26.59496307373047,
                0,
                -32.192054748535156
            ],
            "type" : "VEC3"
        },
        {
            "bufferView" : 22,
            "componentType" : 5126,
            "count" : 264,
            "type" : "VEC3"
        },
        {
            "bufferView" : 23,
            "componentType" : 5126,
            "count" : 264,
            "type" : "VEC2"
        }
    ],
    "bufferViews" : [
        {
            "buffer" : 0,
            "byteLength" : 3168,
            "byteOffset" : 0
        },
        {
            "buffer" : 0,
            "byteLength" : 3168,
            "byteOffset" : 3168
        },
        {
            "buffer" : 0,
            "byteLength" : 2112,
            "byteOffset" : 6336
        },
        {
            "buffer" : 0,
            "byteLength" : 1032,
            "byteOffset" : 8448
        },
        {
            "buffer" : 0,
            "byteLength" : 3168,
            "byteOffset" : 9480
        },
        {
            "buffer" : 0,
            "byteLength" : 3168,
            "byteOffset" : 12648
        },
        {
            "buffer" : 0,
            "byteLength" : 2112,
            "byteOffset" : 15816
        },
        {
            "buffer" : 0,
            "byteLength" : 3168,
            "byteOffset" : 17928
        },
        {
            "buffer" : 0,
            "byteLength" : 3168,
            "byteOffset" : 21096
        },
        {
            "buffer" : 0,
            "byteLength" : 2112,
            "byteOffset" : 24264
        },
        {
            "buffer" : 0,
            "byteLength" : 7500,
            "byteOffset" : 26376
        },
        {
            "buffer" : 0,
            "byteLength" : 7500,
            "byteOffset" : 33876
        },
        {
            "buffer" : 0,
            "byteLength" : 5000,
            "byteOffset" : 41376
        },
        {
            "buffer" : 0,
            "byteLength" : 2952,
            "byteOffset" : 46376
        },
        {
            "buffer" : 0,
            "byteLength" : 1848,
            "byteOffset" : 49328
        },
        {
            "buffer" : 0,
            "byteLength" : 1848,
            "byteOffset" : 51176
        },
        {
            "buffer" : 0,
            "byteLength" : 1232,
            "byteOffset" : 53024
        },
        {
            "buffer" : 0,
            "byteLength" : 1296,
            "byteOffset" : 54256
        },
        {
            "buffer" : 0,
            "byteLength" : 3168,
            "byteOffset" : 55552
        },
        {
            "buffer" : 0,
            "byteLength" : 3168,
            "byteOffset" : 58720
        },
        {
            "buffer" : 0,
            "byteLength" : 2112,
            "byteOffset" : 61888
        },
        {
            "buffer" : 0,
            "byteLength" : 3168,
            "byteOffset" : 64000
        },
        {
            "buffer" : 0,
            "byteLength" : 3168,
            "byteOffset" : 67168
        },
        {
            "buffer" : 0,
            "byteLength" : 2112,
            "byteOffset" : 70336
        }
    ],
    "buffers" : [
        {
            "byteLength" : 72448,
            "uri" : "lampe.bin"
        }
    ]
}
