{
    "asset" : {
        "generator" : "Khronos glTF Blender I/O v1.1.46",
        "version" : "2.0"
    },
    "scene" : 0,
    "scenes" : [
        {
            "name" : "Scene",
            "nodes" : [
                0,
                1,
                2,
                3,
                4,
                5,
                6
            ]
        }
    ],
    "nodes" : [
        {
            "mesh" : 0,
            "name" : "Box001",
            "rotation" : [
                -0.5,
                0.5,
                -0.4999999701976776,
                0.5
            ],
            "scale" : [
                0.0010533406166359782,
                0.0010533406166359782,
                0.0010533406166359782
            ],
            "translation" : [
                0.0009340017568320036,
                0.030582215636968613,
                0.04260505735874176
            ]
        },
        {
            "mesh" : 1,
            "name" : "Box002",
            "rotation" : [
                -0.5,
                0.5,
                -0.4999999701976776,
                0.5
            ],
            "scale" : [
                0.0004797674482688308,
                0.0004797674482688308,
                0.0004797674482688308
            ],
            "translation" : [
                0.0009340026881545782,
                0.05181315168738365,
                0.038684070110321045
            ]
        },
        {
            "mesh" : 2,
            "name" : "Box003",
            "rotation" : [
                -0.5,
                0.5,
                -0.4999999701976776,
                0.5
            ],
            "scale" : [
                0.0010533406166359782,
                0.0010533406166359782,
                0.0010533406166359782
            ],
            "translation" : [
                0.0009340017568320036,
                0.030582215636968613,
                -0.024603962898254395
            ]
        },
        {
            "mesh" : 3,
            "name" : "Box004",
            "rotation" : [
                -0.5,
                0.5,
                -0.4999999701976776,
                0.5
            ],
            "scale" : [
                0.0008229726227000356,
                0.0008229726227000356,
                0.0008229726227000356
            ],
            "translation" : [
                0.0021872534416615963,
                0.0522780679166317,
                0.053173989057540894
            ]
        },
        {
            "mesh" : 4,
            "name" : "Cylinder001",
            "rotation" : [
                -0.5,
                0.5,
                -0.4999999701976776,
                0.5
            ],
            "scale" : [
                0.0011733119608834386,
                0.0034155151806771755,
                0.0011733119608834386
            ],
            "translation" : [
                0.0017256304854527116,
                0.0515536330640316,
                0.05701202154159546
            ]
        },
        {
            "mesh" : 5,
            "name" : "Box005",
            "rotation" : [
                -0.5,
                0.5,
                -0.4999999701976776,
                0.5
            ],
            "scale" : [
                0.0010219198884442449,
                0.0042715780436992645,
                0.0009121412876993418
            ],
            "translation" : [
                0.0009339973912574351,
                0.0277668796479702,
                -0.001524798572063446
            ]
        },
        {
            "mesh" : 6,
            "name" : "Box006",
            "rotation" : [
                -0.5,
                0.5,
                -0.4999999701976776,
                0.5
            ],
            "scale" : [
                0.0009696520282886922,
                0.0027722534723579884,
                0.0008466134313493967
            ],
            "translation" : [
                0.0009339990792796016,
                0.028399940580129623,
                0.029915332794189453
            ]
        }
    ],
    "materials" : [
        {
            "alphaMode" : "BLEND",
            "doubleSided" : true,
            "emissiveFactor" : [
                1,
                1,
                1
            ],
            "name" : "Material.001",
            "pbrMetallicRoughness" : {
                "baseColorFactor" : [
                    1,
                    1,
                    1,
                    0.08571428060531616
                ],
                "metallicFactor" : 0,
                "roughnessFactor" : 0.15450122952461243
            }
        },
        {
            "alphaMode" : "BLEND",
            "doubleSided" : true,
            "emissiveFactor" : [
                0,
                0,
                0
            ],
            "name" : "None.002",
            "pbrMetallicRoughness" : {
                "baseColorFactor" : [
                    0.800000011920929,
                    0.800000011920929,
                    0.800000011920929,
                    1
                ],
                "baseColorTexture" : {
                    "index" : 0,
                    "texCoord" : 0
                },
                "metallicFactor" : 0,
                "roughnessFactor" : 1
            }
        }
    ],
    "meshes" : [
        {
            "name" : "Mesh",
            "primitives" : [
                {
                    "attributes" : {
                        "POSITION" : 0,
                        "NORMAL" : 1,
                        "TEXCOORD_0" : 2
                    },
                    "indices" : 3
                }
            ]
        },
        {
            "name" : "Mesh.001",
            "primitives" : [
                {
                    "attributes" : {
                        "POSITION" : 4,
                        "NORMAL" : 5,
                        "TEXCOORD_0" : 6
                    },
                    "indices" : 3
                }
            ]
        },
        {
            "name" : "Mesh.002",
            "primitives" : [
                {
                    "attributes" : {
                        "POSITION" : 7,
                        "NORMAL" : 8,
                        "TEXCOORD_0" : 9
                    },
                    "indices" : 3
                }
            ]
        },
        {
            "name" : "Mesh.003",
            "primitives" : [
                {
                    "attributes" : {
                        "POSITION" : 10,
                        "NORMAL" : 11,
                        "TEXCOORD_0" : 12
                    },
                    "indices" : 13
                }
            ]
        },
        {
            "name" : "Mesh.004",
            "primitives" : [
                {
                    "attributes" : {
                        "POSITION" : 14,
                        "NORMAL" : 15,
                        "TEXCOORD_0" : 16
                    },
                    "indices" : 17
                }
            ]
        },
        {
            "name" : "Mesh.006",
            "primitives" : [
                {
                    "attributes" : {
                        "POSITION" : 18,
                        "NORMAL" : 19,
                        "TEXCOORD_0" : 20
                    },
                    "indices" : 3,
                    "material" : 0
                }
            ]
        },
        {
            "name" : "Mesh.007",
            "primitives" : [
                {
                    "attributes" : {
                        "POSITION" : 21,
                        "NORMAL" : 22,
                        "TEXCOORD_0" : 23
                    },
                    "indices" : 3,
                    "material" : 1
                }
            ]
        }
    ],
    "textures" : [
        {
            "source" : 0
        }
    ],
    "images" : [
        {
            "mimeType" : "image/png",
            "name" : "Soap",
            "uri" : "Soap.png"
        }
    ],
    "accessors" : [
        {
            "bufferView" : 0,
            "componentType" : 5126,
            "count" : 264,
            "max" : [
                26.59496307373047,
                14.663636207580566,
                32.192054748535156
            ],
            "min" : [
                -26.59496307373047,
                0,
                -32.192054748535156
            ],
            "type" : "VEC3"
        },
        {
            "bufferView" : 1,
            "componentType" : 5126,
            "count" : 264,
            "type" : "VEC3"
        },
        {
            "bufferView" : 2,
            "componentType" : 5126,
            "count" : 264,
            "type" : "VEC2"
        },
        {
            "bufferView" : 3,
            "componentType" : 5123,
            "count" : 516,
            "type" : "SCALAR"
        },
        {
            "bufferView" : 4,
            "componentType" : 5126,
            "count" : 264,
            "max" : [
                26.59496307373047,
                14.663636207580566,
                32.192054748535156
            ],
            "min" : [
                -26.59496307373047,
                0,
                -32.192054748535156
            ],
            "type" : "VEC3"
        },
        {
            "bufferView" : 5,
            "componentType" : 5126,
            "count" : 264,
            "type" : "VEC3"
        },
        {
            "bufferView" : 6,
            "componentType" : 5126,
            "count" : 264,
            "type" : "VEC2"
        },
        {
            "bufferView" : 7,
            "componentType" : 5126,
            "count" : 264,
            "max" : [
                26.594966888427734,
                14.77891731262207,
                32.19206237792969
            ],
            "min" : [
                -26.59496307373047,
                0,
                -32.19206237792969
            ],
            "type" : "VEC3"
        },
        {
            "bufferView" : 8,
            "componentType" : 5126,
            "count" : 264,
            "type" : "VEC3"
        },
        {
            "bufferView" : 9,
            "componentType" : 5126,
            "count" : 264,
            "type" : "VEC2"
        },
        {
            "bufferView" : 10,
            "componentType" : 5126,
            "count" : 625,
            "max" : [
                7.603862762451172,
                13.20617961883545,
                8.149495124816895
            ],
            "min" : [
                -7.603862762451172,
                0,
                -8.149495124816895
            ],
            "type" : "VEC3"
        },
        {
            "bufferView" : 11,
            "componentType" : 5126,
            "count" : 625,
            "type" : "VEC3"
        },
        {
            "bufferView" : 12,
            "componentType" : 5126,
            "count" : 625,
            "type" : "VEC2"
        },
        {
            "bufferView" : 13,
            "componentType" : 5123,
            "count" : 1476,
            "type" : "SCALAR"
        },
        {
            "bufferView" : 14,
            "componentType" : 5126,
            "count" : 154,
            "max" : [
                1.5935630798339844,
                2.231323003768921,
                1.569353461265564
            ],
            "min" : [
                -1.5935630798339844,
                0,
                -1.5693533420562744
            ],
            "type" : "VEC3"
        },
        {
            "bufferView" : 15,
            "componentType" : 5126,
            "count" : 154,
            "type" : "VEC3"
        },
        {
            "bufferView" : 16,
            "componentType" : 5126,
            "count" : 154,
            "type" : "VEC2"
        },
        {
            "bufferView" : 17,
            "componentType" : 5123,
            "count" : 648,
            "type" : "SCALAR"
        },
        {
            "bufferView" : 18,
            "componentType" : 5126,
            "count" : 264,
            "max" : [
                26.352060317993164,
                7.331823825836182,
                32.192054748535156
            ],
            "min" : [
                -26.837865829467773,
                -7.331812381744385,
                -32.192054748535156
            ],
            "type" : "VEC3"
        },
        {
            "bufferView" : 19,
            "componentType" : 5126,
            "count" : 264,
            "type" : "VEC3"
        },
        {
            "bufferView" : 20,
            "componentType" : 5126,
            "count" : 264,
            "type" : "VEC2"
        },
        {
            "bufferView" : 21,
            "componentType" : 5126,
            "count" : 264,
            "max" : [
                26.59496307373047,
                14.663636207580566,
                32.192054748535156
            ],
            "min" : [
                -26.59496307373047,
                0,
                -32.192054748535156
            ],
            "type" : "VEC3"
        },
        {
            "bufferView" : 22,
            "componentType" : 5126,
            "count" : 264,
            "type" : "VEC3"
        },
        {
            "bufferView" : 23,
            "componentType" : 5126,
            "count" : 264,
            "type" : "VEC2"
        }
    ],
    "bufferViews" : [
        {
            "buffer" : 0,
            "byteLength" : 3168,
            "byteOffset" : 0
        },
        {
            "buffer" : 0,
            "byteLength" : 3168,
            "byteOffset" : 3168
        },
        {
            "buffer" : 0,
            "byteLength" : 2112,
            "byteOffset" : 6336
        },
        {
            "buffer" : 0,
            "byteLength" : 1032,
            "byteOffset" : 8448
        },
        {
            "buffer" : 0,
            "byteLength" : 3168,
            "byteOffset" : 9480
        },
        {
            "buffer" : 0,
            "byteLength" : 3168,
            "byteOffset" : 12648
        },
        {
            "buffer" : 0,
            "byteLength" : 2112,
            "byteOffset" : 15816
        },
        {
            "buffer" : 0,
            "byteLength" : 3168,
            "byteOffset" : 17928
        },
        {
            "buffer" : 0,
            "byteLength" : 3168,
            "byteOffset" : 21096
        },
        {
            "buffer" : 0,
            "byteLength" : 2112,
            "byteOffset" : 24264
        },
        {
            "buffer" : 0,
            "byteLength" : 7500,
            "byteOffset" : 26376
        },
        {
            "buffer" : 0,
            "byteLength" : 7500,
            "byteOffset" : 33876
        },
        {
            "buffer" : 0,
            "byteLength" : 5000,
            "byteOffset" : 41376
        },
        {
            "buffer" : 0,
            "byteLength" : 2952,
            "byteOffset" : 46376
        },
        {
            "buffer" : 0,
            "byteLength" : 1848,
            "byteOffset" : 49328
        },
        {
            "buffer" : 0,
            "byteLength" : 1848,
            "byteOffset" : 51176
        },
        {
            "buffer" : 0,
            "byteLength" : 1232,
            "byteOffset" : 53024
        },
        {
            "buffer" : 0,
            "byteLength" : 1296,
            "byteOffset" : 54256
        },
        {
            "buffer" : 0,
            "byteLength" : 3168,
            "byteOffset" : 55552
        },
        {
            "buffer" : 0,
            "byteLength" : 3168,
            "byteOffset" : 58720
        },
        {
            "buffer" : 0,
            "byteLength" : 2112,
            "byteOffset" : 61888
        },
        {
            "buffer" : 0,
            "byteLength" : 3168,
            "byteOffset" : 64000
        },
        {
            "buffer" : 0,
            "byteLength" : 3168,
            "byteOffset" : 67168
        },
        {
            "buffer" : 0,
            "byteLength" : 2112,
            "byteOffset" : 70336
        }
    ],
    "buffers" : [
        {
            "byteLength" : 72448,
            "uri" : "lampe.bin"
        }
    ]
}
